HIERARCHY
ROOT Hips
{
	OFFSET -3.958830 18.904000 13.208200
	CHANNELS 6 Xposition Yposition Zposition Zrotation Yrotation Xrotation 
	JOINT LHipJoint
	{
		OFFSET 0.000000 0.000000 0.000000
		CHANNELS 3 Zrotation Yrotation Xrotation
		JOINT LeftUpLeg
		{
			OFFSET 1.800000 -1.400000 0.085000
			CHANNELS 3 Zrotation Yrotation Xrotation
			JOINT LeftLeg
			{
				OFFSET 2.215000 -6.000000 0.000000
				CHANNELS 3 Zrotation Yrotation Xrotation
				JOINT LeftFoot
				{
					OFFSET 2.500000 -6.900000 0.000000
					CHANNELS 3 Zrotation Yrotation Xrotation
					JOINT LeftToeBase
					{
						OFFSET 0.200000 -0.500000 1.950000
						CHANNELS 3 Zrotation Yrotation Xrotation
						End Site
						{
							OFFSET 0.000000 0.000000 0.000000
						}
					}
				}
			}
		}
	}
	JOINT RHipJoint
	{
		OFFSET 0.000000 0.000000 0.000000
		CHANNELS 3 Zrotation Yrotation Xrotation
		JOINT RightUpLeg
		{
			OFFSET -1.800000 -1.400000 0.085000
			CHANNELS 3 Zrotation Yrotation Xrotation
			JOINT RightLeg
			{
				OFFSET -2.215000 -6.000000 0.000000
				CHANNELS 3 Zrotation Yrotation Xrotation
				JOINT RightFoot
				{
					OFFSET -2.500000 -6.900000 0.000000
					CHANNELS 3 Zrotation Yrotation Xrotation
					JOINT RightToeBase
					{
						OFFSET -0.200000 -0.500000 1.950000
						CHANNELS 3 Zrotation Yrotation Xrotation
						End Site
						{
							OFFSET 0.000000 0.000000 0.000000
						}
					}
				}
			}
		}
	}
	JOINT LowerBack
	{
		OFFSET 0.000000 0.000000 0.000000
		CHANNELS 3 Zrotation Yrotation Xrotation
		JOINT Spine
		{
			OFFSET -0.087000 1.940000 -0.288900
			CHANNELS 3 Zrotation Yrotation Xrotation
			JOINT Spine1
			{
				OFFSET 0.000000 1.950000 0.060000
				CHANNELS 3 Zrotation Yrotation Xrotation
				JOINT Neck
				{
					OFFSET 0.000000 0.000000 0.000000
					CHANNELS 3 Zrotation Yrotation Xrotation
					JOINT Neck1
					{
						OFFSET 0.000000 1.600000 0.340000
						CHANNELS 3 Zrotation Yrotation Xrotation
						JOINT Head
						{
							OFFSET 0.000000 1.667000 -0.240000
							CHANNELS 3 Zrotation Yrotation Xrotation
							End Site
							{
								OFFSET 0.000000 0.000000 0.000000
							}
						}
					}
				}
				JOINT LeftShoulder
				{
					OFFSET 0.000000 0.000000 0.000000
					CHANNELS 3 Zrotation Yrotation Xrotation
					JOINT LeftArm
					{
						OFFSET 2.700000 1.550000 -0.730000
						CHANNELS 3 Zrotation Yrotation Xrotation
						JOINT LeftForeArm
						{
							OFFSET 5.450000 0.000000 0.000000
							CHANNELS 3 Zrotation Yrotation Xrotation
							JOINT LeftHand
							{
								OFFSET 3.450000 0.000000 0.000000
								CHANNELS 3 Zrotation Yrotation Xrotation
								JOINT LeftHandIndex1
								{
									OFFSET 0.750000 0.000000 0.000000
									CHANNELS 3 Zrotation Yrotation Xrotation
									End Site
									{
										OFFSET 0.000000 0.000000 0.000000
									}
								}
							}
						}
					}
				}
				JOINT RightShoulder
				{
					OFFSET 0.000000 0.000000 0.000000
					CHANNELS 3 Zrotation Yrotation Xrotation
					JOINT RightArm
					{
						OFFSET -2.700000 1.550000 -0.730000
						CHANNELS 3 Zrotation Yrotation Xrotation
						JOINT RightForeArm
						{
							OFFSET -5.450000 0.000000 0.000000
							CHANNELS 3 Zrotation Yrotation Xrotation
							JOINT RightHand
							{
								OFFSET -3.450000 0.000000 0.000000
								CHANNELS 3 Zrotation Yrotation Xrotation
								JOINT RightHandIndex1
								{
									OFFSET -0.750000 0.000000 0.000000
									CHANNELS 3 Zrotation Yrotation Xrotation
									End Site
									{
										OFFSET 0.000000 0.000000 0.000000
									}
								}
							}
						}
					}
				}
			}
		}
	}
}
MOTION
Frames: 9
Frame Time: 0.016667
4.169480 15.729380 0.038540 20.431098 13.486354 -9.872805 -15.470946 11.877292 3.989719 -8.529195 -5.141787 -1.080351 -31.478680 15.581331 25.245173 1.099112 8.672035 1.545726 0.291900 0.331040 0.352640 18.404631 -8.743410 3.987436 24.526507 6.029637 -33.004120 0.564266 -1.290621 3.562315 0.134815 -0.648336 3.967950 0.262700 -0.083390 0.079390 -3.383571 -2.715587 -8.908097 -6.607789 -3.777878 25.543672 -19.861393 -1.374161 12.816318 0.850090 3.085624 -10.053121 -1.143642 4.694207 46.410205 0.033440 11.324100 -9.275540 -15.162040 -25.250260 -4.621195 -5.658142 -43.690932 -4.965093 71.225601 -34.601469 -23.569960 -3.850024 2.521821 0.244940 0.021930 0.181230 -0.036370 12.452072 16.250806 12.670298 60.079539 -3.977607 -10.985107 46.773955 40.597353 9.713294 2.251346 -1.707612 -0.081320 0.112260 -0.057560 -0.184010 
4.125120 15.702180 0.041600 20.001427 13.192985 -10.807333 -15.452119 11.800199 3.956484 -7.516208 -5.279981 -0.965563 -31.873643 16.122178 26.071727 1.145965 8.847229 1.474010 0.300380 0.338150 0.371120 18.419541 -8.721165 4.140631 25.891475 6.762177 -34.581768 1.104664 -1.329269 3.140323 0.126893 -0.514527 4.007592 0.250000 -0.118240 0.073210 -3.426933 -2.483054 -9.009722 -7.260273 -2.973781 26.906145 -19.313341 -0.667109 12.382718 0.949380 4.015250 -10.755166 0.524016 4.126386 48.774435 0.917400 11.546150 -9.649710 -15.456104 -27.177167 -4.382659 -4.640908 -42.265096 -6.424004 65.333670 -34.359251 -20.995156 -3.818598 2.521081 0.287880 -0.015800 0.218840 -0.044570 12.580107 18.073052 13.331977 60.470826 -3.528790 -11.224456 48.311884 40.409459 9.890868 2.280696 -1.678895 -0.075220 0.111280 -0.064570 -0.193260 
4.080310 15.699600 0.040420 19.069546 13.034153 -11.739936 -15.419453 11.752229 3.883242 -6.284798 -5.211369 -0.754704 -31.563637 16.316084 26.518892 1.149614 8.880004 1.442937 0.312430 0.349200 0.394000 18.443001 -8.713947 4.311620 27.139157 7.629185 -36.392425 1.726882 -1.373919 2.631436 0.119876 -0.373932 4.046238 0.239970 -0.158540 0.068550 -3.507344 -2.238189 -9.097972 -7.312156 -2.330675 28.371140 -18.577238 -0.104879 11.795177 1.021026 4.821497 -11.396379 2.058852 3.439611 51.040746 1.604710 11.650420 -10.123840 -16.292743 -29.067624 -4.023905 -4.140578 -40.875735 -7.484649 59.641225 -34.341021 -18.735647 -3.786561 2.518181 0.329120 -0.054560 0.257970 -0.054970 13.307478 19.855825 13.890956 60.444792 -3.145718 -11.535708 48.988252 40.102888 9.762861 2.315112 -1.639230 -0.066140 0.106830 -0.073060 -0.203490 
4.033670 15.718050 0.023150 17.571335 12.385502 -12.515688 -15.367167 11.700936 3.755695 -4.903362 -4.958028 -0.888257 -30.563324 16.183000 26.684767 1.108356 8.766521 1.457363 0.317720 0.352120 0.410920 18.489492 -8.669739 4.576353 28.883789 9.042637 -38.780135 1.514566 -1.349880 2.673078 0.123420 -0.207009 4.093873 0.226640 -0.193080 0.065570 -3.643497 -1.973500 -9.196834 -6.477297 -1.871587 29.942259 -17.892841 0.386974 10.984456 1.130122 5.388257 -12.128547 3.300814 2.931851 52.875114 2.098300 11.781270 -10.541570 -17.389723 -31.037438 -3.416711 -3.813721 -39.107590 -8.463462 54.498945 -34.387320 -16.827959 -3.762937 2.519285 0.366120 -0.087860 0.291370 -0.065850 14.179828 21.884728 14.380229 60.004368 -2.526612 -11.747582 48.519965 39.753164 9.352362 2.349499 -1.590983 -0.059040 0.101340 -0.077360 -0.212850 
3.991090 15.761470 -0.009580 15.743501 11.345811 -12.978036 -15.311168 11.663664 3.605942 -3.433383 -4.657934 -1.436887 -29.246424 15.784059 26.526338 1.034369 8.536900 1.508514 0.321530 0.354120 0.425200 18.541015 -8.599045 4.881473 30.499297 10.691980 -41.249642 0.531454 -1.272091 2.937732 0.129599 -0.044939 4.142284 0.213910 -0.223910 0.061580 -3.785103 -1.748667 -9.295840 -5.150198 -1.573038 31.364204 -17.125473 0.805714 9.992455 1.216686 5.787812 -12.946606 4.328954 2.621356 54.521418 2.479850 11.991350 -10.869050 -18.649608 -33.155206 -2.604879 -3.680609 -37.123408 -9.414660 49.332843 -33.754649 -14.803587 -3.752483 2.535452 0.398490 -0.117080 0.320400 -0.074830 15.238443 24.224600 14.749262 59.377206 -1.350457 -11.698613 46.290265 38.976845 8.394232 2.382925 -1.529524 -0.053160 0.096100 -0.082110 -0.221350 
3.950570 15.829110 -0.047020 14.008218 9.946560 -13.059377 -15.264911 11.687809 3.481167 -2.145753 -4.265217 -2.180926 -27.889609 15.171506 25.870478 0.939219 8.209189 1.591945 0.323350 0.353650 0.440480 18.568509 -8.585001 5.094177 30.943047 11.979082 -43.271415 1.529142 -1.381215 1.818020 0.129502 0.081318 4.179834 0.200280 -0.254110 0.059390 -3.878387 -1.581872 -9.359205 -3.941083 -1.214759 32.351856 -16.268996 1.291872 8.908061 1.298030 6.130360 -13.844237 5.343248 2.407750 56.114474 2.671320 12.299750 -11.145300 -20.098200 -35.193293 -1.624334 -3.887391 -34.985602 -10.184780 44.451283 -32.618708 -12.869727 -3.751796 2.561436 0.427390 -0.143200 0.347910 -0.085300 16.485587 26.670269 14.961645 58.665687 0.287472 -11.291991 42.313603 37.522421 6.943356 2.411036 -1.455792 -0.046950 0.088580 -0.086260 -0.230320 
3.918070 15.921820 -0.075220 12.178167 8.896469 -13.095152 -15.230268 11.776354 3.350928 -0.997171 -3.829022 -2.703938 -25.931889 14.382735 25.256691 0.830514 7.822367 1.698956 0.318750 0.344330 0.449620 18.578594 -8.575326 5.284632 30.607280 13.079317 -45.223400 1.685047 -1.408265 1.199671 0.134028 0.183012 4.211758 0.182580 -0.279250 0.057330 -3.934148 -1.516775 -9.400987 -2.723510 -1.115939 33.177777 -15.277155 1.518546 7.789958 1.405267 6.276352 -14.749695 6.026254 2.318770 57.780533 2.625490 12.566670 -10.971770 -21.909334 -36.754844 -0.414090 -4.419915 -32.378578 -10.741535 39.529862 -31.725730 -11.090153 -3.753508 2.597115 0.448110 -0.162820 0.367180 -0.095380 18.073195 28.866509 14.936537 57.675367 2.123542 -10.469982 37.126890 35.148505 5.264017 2.431322 -1.377827 -0.041180 0.077380 -0.087940 -0.237880 
3.890060 16.033720 -0.100020 10.116721 7.878775 -13.029644 -15.197073 11.910181 3.231049 0.348682 -3.401349 -3.156406 -24.023354 13.465848 24.160023 0.710346 7.382456 1.826758 0.315780 0.334960 0.459260 18.577596 -8.590916 5.420427 29.453925 13.836317 -46.747508 2.214576 -1.437536 0.538450 0.134090 0.250094 4.230081 0.165940 -0.305220 0.056030 -3.973444 -1.519644 -9.422865 -1.145940 -1.244833 33.819622 -14.207124 1.686997 6.800353 1.474839 6.166072 -15.699433 6.063168 2.291630 59.264972 2.379510 12.508170 -10.799490 -23.643492 -38.007283 0.757319 -5.308407 -30.140698 -11.035418 34.612964 -29.699205 -9.228419 -3.755800 2.642236 0.465470 -0.183290 0.384620 -0.105280 19.650737 30.903304 14.907943 56.634195 3.729591 -9.571757 31.808578 32.727164 3.850152 2.438550 -1.310003 -0.033410 0.065500 -0.089820 -0.243510 
3.870250 16.144050 -0.107990 8.087994 7.391801 -12.538624 -15.173897 12.118160 3.135824 1.334003 -2.958844 -3.813210 -21.760165 12.364073 22.862055 0.570704 6.863234 1.990346 0.305850 0.316910 0.458910 18.550512 -8.682190 5.421706 27.122043 13.801856 -47.989480 2.863060 -1.443647 -1.803229 0.135148 0.266075 4.237062 0.148890 -0.317440 0.053840 -3.973862 -1.619609 -9.400617 0.526552 -1.592924 33.703517 -13.244516 1.649377 6.072094 1.603376 5.887916 -16.491052 5.636444 2.466531 59.870697 1.976310 12.199090 -10.536700 -24.940305 -38.519561 1.895462 -6.862162 -28.498283 -10.871334 30.024340 -26.990153 -7.536976 -3.757278 2.684862 0.472390 -0.193270 0.388020 -0.112650 20.675694 32.203905 14.647829 55.954958 5.136095 -8.683857 27.439395 30.411884 2.843116 2.439662 -1.263802 -0.030320 0.057300 -0.086780 -0.245830 
